<svg xmlns="http://www.w3.org/2000/svg" xmlns:xlink="http://www.w3.org/1999/xlink" width="109" zoomAndPan="magnify" viewBox="0 0 81.75 42.75" height="57" preserveAspectRatio="xMidYMid meet" version="1.0"><defs><g/></defs><g fill="#ff914d" fill-opacity="1"><g transform="translate(7.04833, 22.29217)"><g><path d="M 7.328125 -2.25 L 8.5625 -2.25 L 8 -4.03125 L 4.1875 -4.03125 L 3.625 -2.25 L 4.9375 -2.25 L 4.9375 0 L 0.21875 0 L 0.21875 -2.25 L 1.140625 -2.25 L 4.53125 -12.4375 L 7.828125 -12.4375 L 11.140625 -2.25 L 12.046875 -2.25 L 12.046875 0 L 7.328125 0 Z M 4.828125 -6.140625 L 7.34375 -6.140625 L 6.078125 -10.171875 Z M 4.828125 -6.140625 "/></g></g></g><g fill="#ff914d" fill-opacity="1"><g transform="translate(24.3096, 22.29217)"><g><path d="M 8.78125 -12.4375 L 13.515625 -12.4375 L 13.515625 -10.171875 L 12.5 -10.171875 L 12.5 0 L 9.78125 0 L 4.59375 -8.03125 L 4.59375 -2.25 L 5.640625 -2.25 L 5.640625 0 L 0.921875 0 L 0.921875 -2.25 L 1.953125 -2.25 L 1.953125 -10.171875 L 0.9375 -10.171875 L 0.9375 -12.4375 L 4.703125 -12.4375 L 9.84375 -4.296875 L 9.84375 -10.171875 L 8.78125 -10.171875 Z M 8.78125 -12.4375 "/></g></g></g><g fill="#ff914d" fill-opacity="1"><g transform="translate(43.267753, 22.29217)"><g><path d="M 8.78125 -12.4375 L 13.515625 -12.4375 L 13.515625 -10.171875 L 12.5 -10.171875 L 12.5 0 L 9.78125 0 L 4.59375 -8.03125 L 4.59375 -2.25 L 5.640625 -2.25 L 5.640625 0 L 0.921875 0 L 0.921875 -2.25 L 1.953125 -2.25 L 1.953125 -10.171875 L 0.9375 -10.171875 L 0.9375 -12.4375 L 4.703125 -12.4375 L 9.84375 -4.296875 L 9.84375 -10.171875 L 8.78125 -10.171875 Z M 8.78125 -12.4375 "/></g></g></g><g fill="#ff914d" fill-opacity="1"><g transform="translate(62.225904, 22.29217)"><g><path d="M 7.328125 -2.25 L 8.5625 -2.25 L 8 -4.03125 L 4.1875 -4.03125 L 3.625 -2.25 L 4.9375 -2.25 L 4.9375 0 L 0.21875 0 L 0.21875 -2.25 L 1.140625 -2.25 L 4.53125 -12.4375 L 7.828125 -12.4375 L 11.140625 -2.25 L 12.046875 -2.25 L 12.046875 0 L 7.328125 0 Z M 4.828125 -6.140625 L 7.34375 -6.140625 L 6.078125 -10.171875 Z M 4.828125 -6.140625 "/></g></g></g><g fill="#c484f1" fill-opacity="1"><g transform="translate(6.687838, 31.325432)"><g><path d="M 0.8125 0 L 0.8125 -6.71875 L 2.328125 -6.71875 L 2.328125 -1.421875 L 5.265625 -1.421875 L 5.265625 0 Z M 0.8125 0 "/></g></g></g><g fill="#c484f1" fill-opacity="1"><g transform="translate(16.058656, 31.325432)"><g><path d="M 0.09375 0 L 2.75 -6.71875 L 4.25 -6.71875 L 6.921875 0 L 5.28125 0 L 4.828125 -1.15625 L 2.171875 -1.15625 L 1.71875 0 Z M 2.5625 -2.359375 L 4.453125 -2.359375 L 3.5 -4.8125 Z M 2.5625 -2.359375 "/></g></g></g><g fill="#c484f1" fill-opacity="1"><g transform="translate(26.907952, 31.325432)"><g><path d="M 0.8125 0 L 0.8125 -6.71875 L 2.328125 -6.71875 L 2.328125 -4.140625 L 2.90625 -4.140625 C 3.28125 -4.140625 3.554688 -4.195312 3.734375 -4.3125 C 3.910156 -4.4375 4.054688 -4.65625 4.171875 -4.96875 L 4.8125 -6.71875 L 6.453125 -6.71875 L 5.53125 -4.328125 C 5.445312 -4.109375 5.347656 -3.910156 5.234375 -3.734375 C 5.128906 -3.566406 5.015625 -3.421875 4.890625 -3.296875 L 6.703125 0 L 4.921875 0 L 3.484375 -2.71875 C 3.421875 -2.71875 3.363281 -2.71875 3.3125 -2.71875 C 3.257812 -2.71875 3.203125 -2.71875 3.140625 -2.71875 L 2.328125 -2.71875 L 2.328125 0 Z M 0.8125 0 "/></g></g></g><g fill="#c484f1" fill-opacity="1"><g transform="translate(37.728445, 31.325432)"><g><path d="M 3.140625 0.140625 C 2.578125 0.140625 2.09375 0.046875 1.6875 -0.140625 C 1.28125 -0.328125 0.96875 -0.59375 0.75 -0.9375 C 0.53125 -1.28125 0.421875 -1.679688 0.421875 -2.140625 L 1.921875 -2.140625 C 1.921875 -1.816406 2.03125 -1.566406 2.25 -1.390625 C 2.46875 -1.210938 2.765625 -1.125 3.140625 -1.125 C 3.453125 -1.125 3.703125 -1.1875 3.890625 -1.3125 C 4.078125 -1.4375 4.171875 -1.609375 4.171875 -1.828125 C 4.171875 -2.066406 4.054688 -2.257812 3.828125 -2.40625 C 3.609375 -2.550781 3.265625 -2.675781 2.796875 -2.78125 C 2.003906 -2.945312 1.421875 -3.195312 1.046875 -3.53125 C 0.671875 -3.875 0.484375 -4.316406 0.484375 -4.859375 C 0.484375 -5.472656 0.707031 -5.957031 1.15625 -6.3125 C 1.601562 -6.664062 2.210938 -6.84375 2.984375 -6.84375 C 3.515625 -6.84375 3.972656 -6.75 4.359375 -6.5625 C 4.753906 -6.382812 5.054688 -6.128906 5.265625 -5.796875 C 5.484375 -5.472656 5.59375 -5.085938 5.59375 -4.640625 L 4.125 -4.640625 C 4.125 -4.929688 4.023438 -5.164062 3.828125 -5.34375 C 3.628906 -5.519531 3.351562 -5.609375 3 -5.609375 C 2.675781 -5.609375 2.421875 -5.546875 2.234375 -5.421875 C 2.054688 -5.296875 1.96875 -5.117188 1.96875 -4.890625 C 1.96875 -4.679688 2.066406 -4.503906 2.265625 -4.359375 C 2.472656 -4.222656 2.832031 -4.097656 3.34375 -3.984375 C 4.1875 -3.785156 4.789062 -3.519531 5.15625 -3.1875 C 5.53125 -2.851562 5.71875 -2.421875 5.71875 -1.890625 C 5.71875 -1.253906 5.488281 -0.753906 5.03125 -0.390625 C 4.570312 -0.0351562 3.941406 0.140625 3.140625 0.140625 Z M 3.140625 0.140625 "/></g></g></g><g fill="#c484f1" fill-opacity="1"><g transform="translate(47.723297, 31.325432)"><g><path d="M 4.953125 0 L 4.953125 -2.703125 L 2.328125 -2.703125 L 2.328125 0 L 0.8125 0 L 0.8125 -6.71875 L 2.328125 -6.71875 L 2.328125 -4.140625 L 4.953125 -4.140625 L 4.953125 -6.71875 L 6.484375 -6.71875 L 6.484375 0 Z M 4.953125 0 "/></g></g></g><g fill="#c484f1" fill-opacity="1"><g transform="translate(58.860608, 31.325432)"><g><path d="M 0.8125 0 L 0.8125 -6.71875 L 2.09375 -6.71875 L 4.484375 -3.234375 L 6.875 -6.71875 L 8.15625 -6.71875 L 8.15625 0 L 6.640625 0 L 6.640625 -4.03125 L 5.015625 -1.65625 L 3.953125 -1.65625 L 2.328125 -4.046875 L 2.328125 0 Z M 0.8125 0 "/></g></g></g><g fill="#c484f1" fill-opacity="1"><g transform="translate(71.668404, 31.325432)"><g><path d="M 0.8125 0 L 0.8125 -6.71875 L 2.328125 -6.71875 L 2.328125 0 Z M 0.8125 0 "/></g></g></g></svg>